<?xml version="1.0" standalone="yes"?>
<svg xmlns="http://www.w3.org/2000/svg" width="544" height="659">
<path style="fill:#085f29; stroke:none;" d="M266 2.51544C242.212 7.26947 218.447 15.5062 195 21.8488C154.382 32.8363 113.457 42.6785 73 54.2909C57.3873 58.7723 41.6194 62.6638 26 67.1412C21.3436 68.476 11.0547 69.6666 8.02778 73.7021C5.86626 76.5839 7 82.6048 7 86L7 119L7 245L7 416C7 434.931 5.9691 454.192 8.28627 473C11.6606 500.389 22.4286 527.4 41.2469 547.83C61.1975 569.489 87.3299 580.836 114 591.861C133.045 599.734 152.062 607.721 171 615.85C193.958 625.703 217.268 634.867 240 645.231C246.565 648.224 253.317 650.883 260 653.603C263.477 655.018 267.117 657.17 271 656.567C280.849 655.037 291.934 648.392 301 644.306C316.504 637.317 332.337 630.912 348 624.284C371.559 614.315 395.352 604.768 419 595.011C433.723 588.936 449.058 583.315 463 575.561C488.343 561.465 509.286 539.843 520.576 513C535.035 478.621 533 441.476 533 405L533 250L533 120L533 87C533 83.4528 534.279 76.6995 531.972 73.7277C529.165 70.1108 520.201 69.267 516 67.9753C500.458 63.1963 484.763 59.0916 469 55.1265C418.848 42.5114 369.421 26.4438 319 14.9892C307.56 12.3902 296.272 8.9483 285 5.70911C278.913 3.96002 272.412 1.23407 266 2.51544M269 24.5093C275.361 24.2336 282.919 27.7066 289 29.4205C301.247 32.8722 313.689 35.8639 326 39.1157C367.671 50.123 409.278 61.5087 451 72.3712C465.357 76.1091 479.722 79.8126 494 83.8596C498.179 85.044 507.271 85.8895 509.972 89.5633C512.132 92.5006 511 98.5557 511 102L511 134L511 256L511 418C511 433.148 512.266 448.922 510.83 464C508.189 491.731 498.971 516.714 479.486 537.08C461.941 555.419 438.089 564.964 415 574.2C395.559 581.977 376.261 590.209 357 598.421C337.075 606.917 316.927 614.918 297 623.421C289.286 626.713 278.47 634.124 270 634.232C261.782 634.336 251.483 627.099 244 624.011C223.626 615.603 203.224 607.197 183 598.424C160.443 588.64 137.59 579.552 115 569.85C93.6733 560.689 73.1148 551.422 57.0934 534C27.8022 502.149 28 461.475 28 421L28 256L28 133L28 102C28 98.6614 26.8455 92.5335 29.0278 89.7277C31.8762 86.0653 41.685 85.2608 46 84.1157C60.3151 80.3168 74.7552 76.6329 89 72.5725C130.852 60.6428 172.815 49.3105 215 38.6258C225.99 35.8423 237.107 33.109 248 30C254.523 28.1382 262.22 24.8031 269 24.5093M104 179C108.7 179.5 113.263 179.99 118 180L118 270C100.795 272.186 81.539 273.77 65 279C68.6041 280.47 72.1971 279.206 76 279.039C83.9714 278.69 92.021 279 100 279L185 279C282.324 279 379.763 279.732 477 280C473.226 277.378 468.45 277.223 464 276.389C455.102 274.722 446.066 272.389 437 272C437 262.274 435.172 250.491 437.303 241C438.922 233.789 445.521 228.937 445.733 221C445.938 213.315 439.005 210.44 437.318 203.961C434.371 192.645 440.232 179.1 436.411 168C434.71 163.056 429.899 158.897 426.579 155C419.281 146.435 411.668 138.171 404.255 129.714C394.228 118.276 383.063 100.408 367 98C367 94.7095 367.977 89.3824 365.397 86.8434C362.495 83.9875 351.202 80.2209 347.603 83.0286C345.623 84.5734 346.026 87.7977 346 90C328.327 85.9113 311.221 77.7403 294 72C288.877 70.2924 279.464 65.0354 274.09 66.6968C270.787 67.7177 268.294 71.6269 265.986 74C259.724 80.4379 254.187 87.4976 248 94C245.511 96.6157 242.675 101.224 238.961 102.096C234.224 103.209 227.506 99.4387 223 98.1412C211.288 94.7689 199.72 90.924 188 87.5787C183.681 86.3458 177.594 83.2319 173.093 83.6436C170.118 83.9157 168.456 86.824 166.86 89.0046C162.75 94.6178 158.705 100.297 154.72 106C143.741 121.711 132.716 137.406 121.573 153C115.551 161.427 108.448 169.598 104 179M284 262C273.055 254.516 263.197 244.923 253 236.435C243.753 228.739 232.922 221.609 225.529 212C216.563 200.345 218.473 184.552 211.583 172C200.245 151.343 171.278 157.499 155 167C165.664 171.979 175.327 179.017 186 184C184.218 191.504 180.171 198.507 176.085 204.999C174.691 207.214 172.805 210.602 169.91 210.978C166.734 211.389 163.413 208.143 161 206.505L141 193C141.001 199.082 141.597 204.244 143.695 210C148.108 222.105 156.367 233.193 168.961 237.417C178.871 240.741 189.77 236.653 200 238.213C209.518 239.665 218.033 248.258 225 254.289C228.351 257.189 231.911 260.086 234 264C199.915 264 165.825 264.725 132 269L132 200C132 190.344 129.692 177.216 132.699 168C135.432 159.624 142.802 151.311 147.667 144C156.918 130.096 165.66 115.845 175 102L177 102C185.999 115.618 197.145 127.781 206.707 141C210.233 145.875 214.549 150.498 217 156C231.751 141.249 246.573 126.435 260.7 111.089C264.111 107.384 267.367 103.512 271.004 100.02C272.551 98.5345 274.553 96.2068 276.91 96.2068C280.585 96.2068 283.719 102.492 285.651 105C292.52 113.913 299.206 122.944 305.884 132C311.576 139.718 317.28 147.464 323.211 155C326.325 158.957 330.852 163.12 332.436 168C335.133 176.309 333 188.292 333 197C333 203.505 334.806 213.259 331.258 219C327.223 225.528 319.745 230.623 314 235.576C303.918 244.27 293.791 252.982 284 262M253 143C254.551 149.513 254 156.341 254 163L271 163L271 143L253 143M275 143C275 147.663 274.916 152.334 275.005 156.996C275.04 158.871 274.829 161.46 276.603 162.666C280.248 165.142 287.707 163.291 292 164C293.947 157.413 293 149.839 293 143L275 143M254 167L254 187L271 187L271 167L254 167M275 167L275 187L293 187L293 167L275 167M409 236C409.56 233.518 410.772 230.57 410.073 228.019C407.64 219.126 392.692 222.641 387 225.769C383.536 227.673 380.762 231.238 378 234C371.482 240.518 365.367 247.382 358.961 254.004C356.004 257.06 352.861 261.042 349 262.972C343.444 265.75 334.102 264 328 264C330.79 258.017 336.377 253.623 341 249C349.322 240.678 357.513 232.194 365.999 224.039C369.515 220.661 373.789 217.566 375.86 212.999C379.878 204.138 370.998 196.08 364 192.324C360.201 190.285 356.122 189.17 352 188C363.39 173.487 385.191 179.343 399 186.247C402.914 188.204 407.68 190.025 410.682 193.329C414.703 197.754 411.802 204.175 416.228 208.674C418.208 210.687 421.137 212.838 424 213.235C428.94 213.919 432.74 211.937 435.106 218.015C438.094 225.693 428.57 241.898 420 242.264C416.029 242.433 412.102 238.049 409 236M123 303C120.552 311.28 122 321.393 122 330L122 384L142 384L142 352L163 352L163 384L183 384L183 304L163 304L163 336L142 336L142 303L123 303M220 303.465C197.712 307.483 195 327.065 195 346C195 355.485 195.016 364.937 200.789 372.999C209.432 385.069 225.218 387.5 239.004 384.901C260.12 380.92 264 361.275 264 343C264 333.385 263.175 323.116 257.362 315.001C249.161 303.552 233.103 301.102 220 303.465M275 304L275 384L293 384L293 332C296.301 339.67 298.027 348.073 300.667 356C303.756 365.276 307.797 374.476 310 384C312.977 384 317.769 384.869 320.298 382.972C323.287 380.73 324.321 374.366 325.576 371C329.87 359.475 335.205 346.154 337 334C340.11 344.522 338 358.045 338 369C338 372.531 336.699 379.457 339.028 382.397C342.024 386.18 355.953 385.22 356.852 379.941C358.195 372.057 357 362.998 357 355L357 304L340 304C337.651 304.005 334.551 303.595 332.51 305.028C329.172 307.372 328.213 314.317 327.14 318C325.165 324.783 322.477 331.367 320.053 338C318.625 341.909 317.777 345.849 315 349C314.039 337.988 308.164 327.387 304.667 317C303.504 313.544 302.656 307.251 299.49 305.028C297.449 303.595 294.349 304.005 292 304L275 304M370 305C372.904 317.197 371 331.494 371 344C371 356.506 372.904 370.803 370 383C375.725 384.692 382.06 384 388 384L419 384L419 367L390 367C390 361.964 390.435 356.853 389 352L414 352L414 337C407.787 337 397.883 338.901 392.148 336.397C387.87 334.529 387.534 324.553 391.318 322.028C393.667 320.46 397.33 321.001 400 321L418 321L418 304L388 304C382.06 304 375.725 303.308 370 305M227 320.344C232.523 319.351 238.126 322.136 240.86 327.015C242.573 330.07 242.748 333.609 243.155 337C244.363 347.065 245.239 365.099 232 367.652C226.322 368.747 220.158 366.17 217.456 360.985C216.053 358.291 215.653 354.98 215.286 352C213.996 341.526 213.504 322.772 227 320.344M339 332L338 333L339 332M76 455L58 455C58.1536 462.209 60.4356 469.321 66.1844 474.072C79.5348 485.105 108.752 481.656 114.891 464C119.463 450.852 113.753 437.727 101 432.453C95.0096 429.975 83.2479 428.203 80.0471 421.895C77.7212 417.311 82.6142 413.119 86.9992 413.323C91.6989 413.54 94.1339 416.808 95 421L113 421C112.709 414.244 111.234 407.287 105.815 402.709C93.5907 392.382 66.5431 395.631 61.2245 412C57.1427 424.563 61.6381 437.268 74 442.536C80.5019 445.307 91.5674 447.01 94.9568 454.015C97.6505 459.583 92.1233 463.888 87 463.913C80.9938 463.942 77.624 460.419 76 455M422 452C417.101 452 407.723 449.663 403.418 451.618C397.811 454.165 398.19 462.136 390 461.717C375.091 460.954 375.727 438.22 377.809 428C378.531 424.453 379.647 420.965 382.34 418.394C390.112 410.975 400.321 417.649 401 427C408.133 427 415.13 427.172 422 425C419.953 417.093 418.708 408.995 411.96 403.529C398.695 392.785 375.146 395.273 364.213 408.004C359.61 413.364 357.837 420.1 357.17 427C355.801 441.141 355.955 459.937 366.185 470.957C377.291 482.92 402.132 483.317 413.671 471.674C418.896 466.403 420.213 458.889 422 452M126 399L126 478L175 478C175 474.031 176.553 465.861 173.972 462.603C172.255 460.436 168.42 461.005 166 461L146 461L146 446L169 446L169 431L146 431L146 416L174 416L174 399L126 399M185 399L185 478L205 478L205 451C219.567 451.172 216.511 468.347 224.815 476.397C228.89 480.347 241.62 478 247 478C242.046 467.389 234.534 457.168 231 446C247.249 440.461 247.091 411.663 233.996 402.854C228.037 398.845 220.871 399 214 399L185 399M249 399C249.539 405.177 252.008 411.008 253.525 417C257.007 430.745 261.032 444.489 265.344 458C266.828 462.649 267.829 473.94 271.728 476.972C273.623 478.446 276.765 477.995 279 478L296 478C302.062 451.557 314.047 425.865 318 399L297 399L284 457C279.713 443.447 277.074 428.883 273.881 415C272.99 411.125 272.771 402.588 269.411 400.028C265.284 396.883 254.038 399 249 399M327 399L327 478L347 478L347 399L327 399M432 399L432 478L481 478L481 461L452 461L452 446L475 446L475 431L452 431L452 416L480 416L480 399L432 399M205 436L205 414C209.421 414 215.75 412.935 219.467 415.858C224.721 419.989 224.213 430.488 218.891 434.262C214.806 437.158 209.643 436.548 205 436M297 519L292 518C290.744 519.181 289.795 520.415 287.929 520.559C282.475 520.979 281.704 512.134 286.133 510.171C288.825 508.978 293.071 511.78 296 512C293.683 502.49 281.083 502.204 278.434 512.001C274.886 525.124 290.846 530.576 297 519M90 505L90 525L95 525L95 518C98.9415 521.068 100.689 524.59 106 525C104.837 522.692 103.769 520.868 102 519C103.001 517.745 104.271 516.504 104.851 514.955C108.585 504.99 96.3152 505 90 505M120 505C118.409 511.872 115.534 518.43 113 525L114 526C116.89 524.787 118.046 523.994 119 521C124.555 521.066 127.762 524.588 133 525C130.597 517.628 129.086 505.302 120 505M142 505L142 525L147 525L147 519C152.631 518.535 162.12 512.88 154.682 506.742C151.458 504.082 145.885 505 142 505M167 505L167 525L172 525C171.381 518.303 172.096 511.707 171 505L167 505M182 525C185.72 525 190.456 525.755 193.981 524.397C203.633 520.677 199.189 505.963 190 505.106C187.836 504.904 184.544 504.689 183.028 506.603C179.971 510.463 182.28 520.276 182 525M209 506C209.971 512.429 209.804 518.575 209 525C214.148 525 220.751 526.594 223 521L214 521L214 517L221 518L221 513L214 513L214 509C218.38 510.247 221.192 509.84 222 505C217.577 505 213.261 504.741 209 506M231 510C234.025 509.438 236.922 509.064 240 509C236.77 514.233 232.223 518.856 231 525L246 525L247 521L238 521C241.416 515.937 245.545 511.265 246 505C240.411 505 232.17 502.989 231 510M304 525C309.59 524.56 314.17 518.06 318 525L324 525C321.971 520.054 320.322 514.952 318.289 510.019C317.48 508.055 316.386 505.755 314 505.466C311.24 505.132 310.15 507.931 309.348 510.019C307.45 514.959 305.64 519.968 304 525M332 506C333.141 511.828 332.753 519.085 332 525L346 525L346 521L337 521C337 515.919 336.817 510.97 338 506C335.542 505.354 334.458 505.354 332 506M354 505L354 525L359 525C359 518.843 361.835 506.308 354 505M370 505L370 525C373.786 525 378.495 525.686 381.945 523.821C388.076 520.506 388.397 510.974 382.786 507.009C379.139 504.432 374.222 505 370 505M395 526L400 525C403.83 518.06 408.41 524.56 414 525C412.815 519.882 410.919 514.901 408.985 510.019C408.217 508.081 407.302 505.751 404.921 505.466C402.086 505.127 400.877 507.846 400.015 510.019C397.966 515.191 395.815 520.485 395 526M423 505L423 525C426.986 525 432.232 525.848 435.786 523.682C441.533 520.18 441.178 510.421 435.891 506.742C432.295 504.24 427.147 505 423 505M95 515L95 509C101.579 509.512 101.426 514.26 95 515M147 515L147 509C152.379 509.898 152.379 514.102 147 515M187 521L187 509C196.668 510.081 196.992 520.448 187 521M374 521L374 509C383.854 509.902 384.053 520.445 374 521M428 521L428 509C436.546 510.391 437.149 520.302 428 521M405 511L406 518L402 517C402.753 514.591 403.397 512.924 405 511M123 512C124.062 513.693 124.52 515.04 125 517L121 517C121.48 515.04 121.938 513.693 123 512M314 512L316 517L312 517C312.48 515.04 312.938 513.693 314 512M255 521C254.674 524.049 254.822 526.944 255 530C258.584 527.927 259.399 524.986 260 521L255 521M447 521C446.556 524.109 446.67 526.884 447 530C450.251 527.852 451.12 524.7 452 521L447 521M335 535L335 539L340 539C339.032 536.036 338.066 535.497 335 535M195 550L185 550L185 553L190 553C184.161 562.951 176.59 546.565 185.059 545.157C187.805 544.7 191.221 546.64 194 547C192.041 540.188 183.555 537.464 178.434 543.228C175.942 546.033 175.575 550.426 176.228 553.996C177.577 561.36 188.436 563.586 193.397 558.196C195.397 556.022 194.99 552.724 195 550M262 540C259.633 546.996 256.669 553.784 255 561L260 561C262.112 557.17 264.839 557.049 269 557C269.968 559.964 270.934 560.503 274 561C272.957 553.936 270.325 546.31 267 540L262 540M297 552C292.975 547.278 290.726 541.518 284 541L284 561L288 561L288 549C291.783 554.203 293.927 560.455 301 561C301 554.161 301.947 546.587 300 540C296.053 542.846 297 547.514 297 552M311 540C310.438 541.801 310.176 543.122 310 545L315 545C315 550.711 312.79 559.797 320 561L320 545L326 545L326 541C320.919 541 315.97 541.183 311 540M349 561C352.532 560.419 353.615 559.272 355 556C357.587 556.641 359.391 556.554 362 556L363 561L368 561C366.772 555.693 365.162 549.959 362.753 545.055C361.818 543.15 360.467 541.046 358.079 541.006C355.715 540.967 354.761 543.182 354.019 545.045C352.004 550.1 349.921 555.647 349 561M209 541C207.965 547.908 204.606 554.219 203 561C207.541 560.275 211.482 557.323 216 556C217.385 559.272 218.468 560.419 222 561C220.981 554.098 217.798 547.723 216 541L209 541M231 541C231 547.157 228.165 559.692 236 561L236 554C240.424 556.294 241.635 560.573 247 561C246.277 558.766 245.124 556.391 245.187 553.998C245.277 550.595 247.678 547.511 245.806 544.148C243.215 539.497 235.436 541 231 541M335 541L335 561C336.878 560.824 338.199 560.562 340 560C338.803 553.551 338.803 547.449 340 541L335 541M242 545C241.348 548.911 239.864 549.7 236 550L236 545L242 545M265 546L267 553L262 553C262.819 550.504 263.599 548.214 265 546M213 547L215 553L211 553C211.255 550.511 211.584 549.042 213 547M359 547L360 553L356 553C356.655 550.463 357.276 548.953 359 547z"/>
</svg>
